<?xml version="1.0" encoding="UTF-8" standalone="no"?>
<!DOCTYPE svg PUBLIC "-//W3C//DTD SVG 1.1//EN"
 "http://www.w3.org/Graphics/SVG/1.1/DTD/svg11.dtd">
<!-- Generated by graphviz version 3.0.0 (20220226.1711)
 -->
<!-- Pages: 1 -->
<svg width="242pt" height="476pt"
 viewBox="0.00 0.00 242.00 476.00" xmlns="http://www.w3.org/2000/svg" xmlns:xlink="http://www.w3.org/1999/xlink">
<g id="graph0" class="graph" transform="scale(1 1) rotate(0) translate(4 472)">
<polygon fill="white" stroke="transparent" points="-4,4 -4,-472 238,-472 238,4 -4,4"/>
<!-- v1 -->
<g id="node1" class="node">
<title>v1</title>
<ellipse fill="none" stroke="black" cx="63" cy="-162" rx="27" ry="18"/>
<text text-anchor="middle" x="63" y="-158.3" font-family="Times,serif" font-size="14.00">1</text>
</g>
<!-- v4 -->
<g id="node4" class="node">
<title>v4</title>
<ellipse fill="none" stroke="black" cx="27" cy="-90" rx="27" ry="18"/>
<text text-anchor="middle" x="27" y="-86.3" font-family="Times,serif" font-size="14.00">4</text>
</g>
<!-- v1&#45;&#45;v4 -->
<g id="edge3" class="edge">
<title>v1&#45;&#45;v4</title>
<path fill="none" stroke="black" d="M54.65,-144.76C48.83,-133.46 41.11,-118.44 35.3,-107.15"/>
</g>
<!-- v11 -->
<g id="node11" class="node">
<title>v11</title>
<ellipse fill="none" stroke="black" cx="99" cy="-90" rx="27" ry="18"/>
<text text-anchor="middle" x="99" y="-86.3" font-family="Times,serif" font-size="14.00">11</text>
</g>
<!-- v1&#45;&#45;v11 -->
<g id="edge2" class="edge">
<title>v1&#45;&#45;v11</title>
<path fill="none" stroke="black" d="M71.35,-144.76C77.17,-133.46 84.89,-118.44 90.7,-107.15"/>
</g>
<!-- v2 -->
<g id="node2" class="node">
<title>v2</title>
<ellipse fill="none" stroke="black" cx="171" cy="-450" rx="27" ry="18"/>
<text text-anchor="middle" x="171" y="-446.3" font-family="Times,serif" font-size="14.00">2</text>
</g>
<!-- v7 -->
<g id="node7" class="node">
<title>v7</title>
<ellipse fill="none" stroke="black" cx="135" cy="-378" rx="27" ry="18"/>
<text text-anchor="middle" x="135" y="-374.3" font-family="Times,serif" font-size="14.00">7</text>
</g>
<!-- v2&#45;&#45;v7 -->
<g id="edge9" class="edge">
<title>v2&#45;&#45;v7</title>
<path fill="none" stroke="black" d="M162.65,-432.76C156.83,-421.46 149.11,-406.44 143.3,-395.15"/>
</g>
<!-- v9 -->
<g id="node9" class="node">
<title>v9</title>
<ellipse fill="none" stroke="black" cx="207" cy="-378" rx="27" ry="18"/>
<text text-anchor="middle" x="207" y="-374.3" font-family="Times,serif" font-size="14.00">9</text>
</g>
<!-- v2&#45;&#45;v9 -->
<g id="edge10" class="edge">
<title>v2&#45;&#45;v9</title>
<path fill="none" stroke="black" d="M179.35,-432.76C185.17,-421.46 192.89,-406.44 198.7,-395.15"/>
</g>
<!-- v3 -->
<g id="node3" class="node">
<title>v3</title>
<ellipse fill="none" stroke="black" cx="99" cy="-18" rx="27" ry="18"/>
<text text-anchor="middle" x="99" y="-14.3" font-family="Times,serif" font-size="14.00">3</text>
</g>
<!-- v5 -->
<g id="node5" class="node">
<title>v5</title>
<ellipse fill="none" stroke="black" cx="99" cy="-234" rx="27" ry="18"/>
<text text-anchor="middle" x="99" y="-230.3" font-family="Times,serif" font-size="14.00">5</text>
</g>
<!-- v5&#45;&#45;v1 -->
<g id="edge4" class="edge">
<title>v5&#45;&#45;v1</title>
<path fill="none" stroke="black" d="M90.65,-216.76C84.83,-205.46 77.11,-190.44 71.3,-179.15"/>
</g>
<!-- v6 -->
<g id="node6" class="node">
<title>v6</title>
<ellipse fill="none" stroke="black" cx="135" cy="-162" rx="27" ry="18"/>
<text text-anchor="middle" x="135" y="-158.3" font-family="Times,serif" font-size="14.00">6</text>
</g>
<!-- v5&#45;&#45;v6 -->
<g id="edge5" class="edge">
<title>v5&#45;&#45;v6</title>
<path fill="none" stroke="black" d="M107.35,-216.76C113.17,-205.46 120.89,-190.44 126.7,-179.15"/>
</g>
<!-- v10 -->
<g id="node10" class="node">
<title>v10</title>
<ellipse fill="none" stroke="black" cx="135" cy="-306" rx="27" ry="18"/>
<text text-anchor="middle" x="135" y="-302.3" font-family="Times,serif" font-size="14.00">10</text>
</g>
<!-- v7&#45;&#45;v10 -->
<g id="edge8" class="edge">
<title>v7&#45;&#45;v10</title>
<path fill="none" stroke="black" d="M135,-359.7C135,-348.85 135,-334.92 135,-324.1"/>
</g>
<!-- v8 -->
<g id="node8" class="node">
<title>v8</title>
<ellipse fill="none" stroke="black" cx="171" cy="-234" rx="27" ry="18"/>
<text text-anchor="middle" x="171" y="-230.3" font-family="Times,serif" font-size="14.00">8</text>
</g>
<!-- v10&#45;&#45;v5 -->
<g id="edge6" class="edge">
<title>v10&#45;&#45;v5</title>
<path fill="none" stroke="black" d="M126.65,-288.76C120.83,-277.46 113.11,-262.44 107.3,-251.15"/>
</g>
<!-- v10&#45;&#45;v8 -->
<g id="edge7" class="edge">
<title>v10&#45;&#45;v8</title>
<path fill="none" stroke="black" d="M143.35,-288.76C149.17,-277.46 156.89,-262.44 162.7,-251.15"/>
</g>
<!-- v11&#45;&#45;v3 -->
<g id="edge1" class="edge">
<title>v11&#45;&#45;v3</title>
<path fill="none" stroke="black" d="M99,-71.7C99,-60.85 99,-46.92 99,-36.1"/>
</g>
</g>
</svg>
